# xmcd
#
# Track frame offsets: 
#        150
#        20662
#        39382
#        63479
#        82311
#        92711
#        114888
#        137990
#        158176
#        175006
#        198735
#        216899
#        238154
#        256172
#        267991
#        286111
#        312084
#
# Disc length: 4423 seconds
#
# Revision: 0
# Processed by: cddbd v1.5.1PL2 Copyright (c) Steve Scherf et al.
# Submitted via: ExactAudioCopy v0.95a5
#
DISCID=f5114511
DTITLE=Sade - By Your Love
DYEAR=1989
DGENRE=Soul
TTITLE0=By Your Love
TTITLE1=Lovers Rock
TTITLE2=Bullet Proof Love
TTITLE3=Slave Song
TTITLE4=The Sweetest Gift
TTITLE5=Somebody Already Broke My Heart
TTITLE6=Feel No Pain
TTITLE7=Flow
TTITLE8=Give It Up
TTITLE9=Keep Looking
TTITLE10=I Never Thought I'd See The Day
TTITLE11=King Of Sorrow
TTITLE12=Clean Heart
TTITLE13=All About Our Love
TTITLE14=Every Word
TTITLE15=Haunt Me
TTITLE16=Mermaid
EXTD=
EXTT0=
EXTT1=
EXTT2=
EXTT3=
EXTT4=
EXTT5=
EXTT6=
EXTT7=
EXTT8=
EXTT9=
EXTT10=
EXTT11=
EXTT12=
EXTT13=
EXTT14=
EXTT15=
EXTT16=
PLAYORDER=
